<svg width="23" height="23" viewBox="0 0 23 23" fill="none" xmlns="http://www.w3.org/2000/svg">
<path d="M6.29811 6.29171C6.29811 3.34619 8.68683 0.958374 11.6335 0.958374C14.5801 0.958374 16.9688 3.34619 16.9688 6.29171C16.9688 9.23723 14.5801 11.625 11.6335 11.625C10.2184 11.625 8.86137 11.0631 7.8608 10.0629C6.86023 9.06275 6.29811 7.7062 6.29811 6.29171ZM22.1574 20.3584L20.2367 16.505C19.5581 15.1462 18.1681 14.2887 16.6487 14.2917H6.61823C5.09886 14.2887 3.70886 15.1462 3.03021 16.505L1.10948 20.3584C0.901446 20.7711 0.922019 21.262 1.16385 21.6559C1.40569 22.0497 1.8343 22.2903 2.2966 22.2917H20.9703C21.4326 22.2903 21.8612 22.0497 22.1031 21.6559C22.3449 21.262 22.3655 20.7711 22.1574 20.3584Z" fill="#B5F5BF"/>
</svg>
